<mxfile host="app.diagrams.net" agent="Mozilla/5.0 (Macintosh; Intel Mac OS X 10_15_7) AppleWebKit/537.36 (KHTML, like Gecko) Chrome/135.0.0.0 Safari/537.36" version="26.2.14">
  <diagram name="Page-1" id="k562zqNPfoW6sCKpZVbe">
    <mxGraphModel dx="1148" dy="647" grid="1" gridSize="10" guides="1" tooltips="1" connect="1" arrows="1" fold="1" page="1" pageScale="1" pageWidth="827" pageHeight="1169" math="0" shadow="0">
      <root>
        <mxCell id="0" />
        <mxCell id="1" parent="0" />
        <mxCell id="udNe-3rVMuzrmk6FU7tA-41" value="Script Ujian Akhir" style="shape=table;startSize=30;container=1;collapsible=0;childLayout=tableLayout;fixedRows=1;rowLines=0;fontStyle=0;strokeColor=default;fontSize=16;verticalAlign=top;" vertex="1" parent="1">
          <mxGeometry x="139" y="390" width="570" height="945" as="geometry" />
        </mxCell>
        <mxCell id="udNe-3rVMuzrmk6FU7tA-42" value="" style="shape=tableRow;horizontal=0;startSize=0;swimlaneHead=0;swimlaneBody=0;top=0;left=0;bottom=0;right=0;collapsible=0;dropTarget=0;fillColor=none;points=[[0,0.5],[1,0.5]];portConstraint=eastwest;strokeColor=inherit;fontSize=16;" vertex="1" parent="udNe-3rVMuzrmk6FU7tA-41">
          <mxGeometry y="30" width="570" height="30" as="geometry" />
        </mxCell>
        <mxCell id="udNe-3rVMuzrmk6FU7tA-43" value="&lt;b&gt;Jalur (&lt;i&gt;Track&lt;/i&gt;)&lt;/b&gt;" style="shape=partialRectangle;html=1;whiteSpace=wrap;connectable=0;fillColor=none;top=0;left=0;bottom=0;right=0;overflow=hidden;pointerEvents=1;strokeColor=inherit;fontSize=16;align=left;" vertex="1" parent="udNe-3rVMuzrmk6FU7tA-42">
          <mxGeometry width="170" height="30" as="geometry">
            <mxRectangle width="170" height="30" as="alternateBounds" />
          </mxGeometry>
        </mxCell>
        <mxCell id="udNe-3rVMuzrmk6FU7tA-44" value="Ujian Tertulis Mata Kuliah Kecerdasan Buatan" style="shape=partialRectangle;html=1;whiteSpace=wrap;connectable=0;fillColor=none;top=0;left=0;bottom=0;right=0;align=left;spacingLeft=6;overflow=hidden;strokeColor=inherit;fontSize=16;" vertex="1" parent="udNe-3rVMuzrmk6FU7tA-42">
          <mxGeometry x="170" width="400" height="30" as="geometry">
            <mxRectangle width="400" height="30" as="alternateBounds" />
          </mxGeometry>
        </mxCell>
        <mxCell id="udNe-3rVMuzrmk6FU7tA-45" value="" style="shape=tableRow;horizontal=0;startSize=0;swimlaneHead=0;swimlaneBody=0;top=0;left=0;bottom=0;right=0;collapsible=0;dropTarget=0;fillColor=none;points=[[0,0.5],[1,0.5]];portConstraint=eastwest;strokeColor=inherit;fontSize=16;" vertex="1" parent="udNe-3rVMuzrmk6FU7tA-41">
          <mxGeometry y="60" width="570" height="30" as="geometry" />
        </mxCell>
        <mxCell id="udNe-3rVMuzrmk6FU7tA-46" value="&lt;b&gt;Peran (&lt;i&gt;Roles&lt;/i&gt;)&lt;/b&gt;" style="shape=partialRectangle;html=1;whiteSpace=wrap;connectable=0;fillColor=none;top=0;left=0;bottom=0;right=0;overflow=hidden;strokeColor=inherit;fontSize=16;align=left;" vertex="1" parent="udNe-3rVMuzrmk6FU7tA-45">
          <mxGeometry width="170" height="30" as="geometry">
            <mxRectangle width="170" height="30" as="alternateBounds" />
          </mxGeometry>
        </mxCell>
        <mxCell id="udNe-3rVMuzrmk6FU7tA-47" value="Mahasiswa, Pengawas Ujian" style="shape=partialRectangle;html=1;whiteSpace=wrap;connectable=0;fillColor=none;top=0;left=0;bottom=0;right=0;align=left;spacingLeft=6;overflow=hidden;strokeColor=inherit;fontSize=16;" vertex="1" parent="udNe-3rVMuzrmk6FU7tA-45">
          <mxGeometry x="170" width="400" height="30" as="geometry">
            <mxRectangle width="400" height="30" as="alternateBounds" />
          </mxGeometry>
        </mxCell>
        <mxCell id="udNe-3rVMuzrmk6FU7tA-48" value="" style="shape=tableRow;horizontal=0;startSize=0;swimlaneHead=0;swimlaneBody=0;top=0;left=0;bottom=0;right=0;collapsible=0;dropTarget=0;fillColor=none;points=[[0,0.5],[1,0.5]];portConstraint=eastwest;strokeColor=inherit;fontSize=16;" vertex="1" parent="udNe-3rVMuzrmk6FU7tA-41">
          <mxGeometry y="90" width="570" height="56" as="geometry" />
        </mxCell>
        <mxCell id="udNe-3rVMuzrmk6FU7tA-49" value="&lt;b&gt;Pendukung (&lt;i&gt;Prop&lt;/i&gt;)&lt;/b&gt;" style="shape=partialRectangle;html=1;whiteSpace=wrap;connectable=0;fillColor=none;top=0;left=0;bottom=0;right=0;overflow=hidden;strokeColor=inherit;fontSize=16;align=left;" vertex="1" parent="udNe-3rVMuzrmk6FU7tA-48">
          <mxGeometry width="170" height="56" as="geometry">
            <mxRectangle width="170" height="56" as="alternateBounds" />
          </mxGeometry>
        </mxCell>
        <mxCell id="udNe-3rVMuzrmk6FU7tA-50" value="Lembar soal, lembar jawaban, presensi, pena, kartu identitas" style="shape=partialRectangle;html=1;whiteSpace=wrap;connectable=0;fillColor=none;top=0;left=0;bottom=0;right=0;align=left;spacingLeft=6;overflow=hidden;strokeColor=inherit;fontSize=16;" vertex="1" parent="udNe-3rVMuzrmk6FU7tA-48">
          <mxGeometry x="170" width="400" height="56" as="geometry">
            <mxRectangle width="400" height="56" as="alternateBounds" />
          </mxGeometry>
        </mxCell>
        <mxCell id="udNe-3rVMuzrmk6FU7tA-57" style="shape=tableRow;horizontal=0;startSize=0;swimlaneHead=0;swimlaneBody=0;top=0;left=0;bottom=0;right=0;collapsible=0;dropTarget=0;fillColor=none;points=[[0,0.5],[1,0.5]];portConstraint=eastwest;strokeColor=inherit;fontSize=16;" vertex="1" parent="udNe-3rVMuzrmk6FU7tA-41">
          <mxGeometry y="146" width="570" height="56" as="geometry" />
        </mxCell>
        <mxCell id="udNe-3rVMuzrmk6FU7tA-58" value="&lt;b&gt;Kondisi Masukan&lt;/b&gt;" style="shape=partialRectangle;html=1;whiteSpace=wrap;connectable=0;fillColor=none;top=0;left=0;bottom=0;right=0;overflow=hidden;strokeColor=inherit;fontSize=16;align=left;" vertex="1" parent="udNe-3rVMuzrmk6FU7tA-57">
          <mxGeometry width="170" height="56" as="geometry">
            <mxRectangle width="170" height="56" as="alternateBounds" />
          </mxGeometry>
        </mxCell>
        <mxCell id="udNe-3rVMuzrmk6FU7tA-59" value="&lt;meta charset=&quot;utf-8&quot;&gt;Mahasiswa terdaftar untuk mengikuti ujian dan membawa perlengkapan ujian" style="shape=partialRectangle;html=1;whiteSpace=wrap;connectable=0;fillColor=none;top=0;left=0;bottom=0;right=0;align=left;spacingLeft=6;overflow=hidden;strokeColor=inherit;fontSize=16;" vertex="1" parent="udNe-3rVMuzrmk6FU7tA-57">
          <mxGeometry x="170" width="400" height="56" as="geometry">
            <mxRectangle width="400" height="56" as="alternateBounds" />
          </mxGeometry>
        </mxCell>
        <mxCell id="udNe-3rVMuzrmk6FU7tA-60" style="shape=tableRow;horizontal=0;startSize=0;swimlaneHead=0;swimlaneBody=0;top=0;left=0;bottom=0;right=0;collapsible=0;dropTarget=0;fillColor=none;points=[[0,0.5],[1,0.5]];portConstraint=eastwest;strokeColor=inherit;fontSize=16;" vertex="1" parent="udNe-3rVMuzrmk6FU7tA-41">
          <mxGeometry y="202" width="570" height="130" as="geometry" />
        </mxCell>
        <mxCell id="udNe-3rVMuzrmk6FU7tA-61" value="&lt;b&gt;Adegan (&lt;i&gt;Scene&lt;/i&gt;) 1&lt;/b&gt;" style="shape=partialRectangle;html=1;whiteSpace=wrap;connectable=0;fillColor=none;top=0;left=0;bottom=0;right=0;overflow=hidden;strokeColor=inherit;fontSize=16;align=left;verticalAlign=top;" vertex="1" parent="udNe-3rVMuzrmk6FU7tA-60">
          <mxGeometry width="170" height="130" as="geometry">
            <mxRectangle width="170" height="130" as="alternateBounds" />
          </mxGeometry>
        </mxCell>
        <mxCell id="udNe-3rVMuzrmk6FU7tA-62" value="&lt;b&gt;Persiapan Sebelum Ujian&lt;/b&gt;&lt;div&gt;&lt;ol&gt;&lt;li&gt;&lt;span style=&quot;background-color: transparent; color: light-dark(rgb(0, 0, 0), rgb(255, 255, 255));&quot;&gt;Mahasiswa mempersiapkan alat tulis dan kartu identitas&lt;/span&gt;&lt;/li&gt;&lt;li&gt;&lt;span style=&quot;background-color: transparent; color: light-dark(rgb(0, 0, 0), rgb(255, 255, 255));&quot;&gt;Mahasiswa menuju lokasi ujian&lt;/span&gt;&lt;/li&gt;&lt;li&gt;&lt;span style=&quot;background-color: transparent; color: light-dark(rgb(0, 0, 0), rgb(255, 255, 255));&quot;&gt;Mahasiswa mengisi daftar presensi&lt;/span&gt;&lt;/li&gt;&lt;/ol&gt;&lt;/div&gt;" style="shape=partialRectangle;html=1;whiteSpace=wrap;connectable=0;fillColor=none;top=0;left=0;bottom=0;right=0;align=left;spacingLeft=6;overflow=hidden;strokeColor=inherit;fontSize=16;" vertex="1" parent="udNe-3rVMuzrmk6FU7tA-60">
          <mxGeometry x="170" width="400" height="130" as="geometry">
            <mxRectangle width="400" height="130" as="alternateBounds" />
          </mxGeometry>
        </mxCell>
        <mxCell id="udNe-3rVMuzrmk6FU7tA-63" style="shape=tableRow;horizontal=0;startSize=0;swimlaneHead=0;swimlaneBody=0;top=0;left=0;bottom=0;right=0;collapsible=0;dropTarget=0;fillColor=none;points=[[0,0.5],[1,0.5]];portConstraint=eastwest;strokeColor=inherit;fontSize=16;" vertex="1" parent="udNe-3rVMuzrmk6FU7tA-41">
          <mxGeometry y="332" width="570" height="170" as="geometry" />
        </mxCell>
        <mxCell id="udNe-3rVMuzrmk6FU7tA-64" value="&lt;span&gt;&lt;b&gt;&lt;span style=&quot;color: rgb(0, 0, 0); font-family: Helvetica; font-size: 16px; font-style: normal; font-variant-ligatures: normal; font-variant-caps: normal; letter-spacing: normal; orphans: 2; text-align: left; text-indent: 0px; text-transform: none; widows: 2; word-spacing: 0px; -webkit-text-stroke-width: 0px; white-space: normal; text-decoration-thickness: initial; text-decoration-style: initial; text-decoration-color: initial; float: none; display: inline !important;&quot;&gt;Adegan (&lt;/span&gt;&lt;i style=&quot;forced-color-adjust: none; color: rgb(0, 0, 0); font-family: Helvetica; font-size: 16px; font-variant-ligatures: normal; font-variant-caps: normal; letter-spacing: normal; orphans: 2; text-align: left; text-indent: 0px; text-transform: none; widows: 2; word-spacing: 0px; -webkit-text-stroke-width: 0px; white-space: normal; text-decoration-thickness: initial; text-decoration-style: initial; text-decoration-color: initial;&quot;&gt;Scene&lt;/i&gt;&lt;span style=&quot;color: rgb(0, 0, 0); font-family: Helvetica; font-size: 16px; font-style: normal; font-variant-ligatures: normal; font-variant-caps: normal; letter-spacing: normal; orphans: 2; text-align: left; text-indent: 0px; text-transform: none; widows: 2; word-spacing: 0px; -webkit-text-stroke-width: 0px; white-space: normal; text-decoration-thickness: initial; text-decoration-style: initial; text-decoration-color: initial; float: none; display: inline !important;&quot;&gt;) 2&lt;/span&gt;&lt;/b&gt;&lt;/span&gt;" style="shape=partialRectangle;html=1;whiteSpace=wrap;connectable=0;fillColor=none;top=0;left=0;bottom=0;right=0;overflow=hidden;strokeColor=inherit;fontSize=16;align=left;verticalAlign=top;" vertex="1" parent="udNe-3rVMuzrmk6FU7tA-63">
          <mxGeometry width="170" height="170" as="geometry">
            <mxRectangle width="170" height="170" as="alternateBounds" />
          </mxGeometry>
        </mxCell>
        <mxCell id="udNe-3rVMuzrmk6FU7tA-65" value="&lt;b&gt;Masuk Ruangan Ujian&lt;/b&gt;&lt;div&gt;&lt;div style=&quot;&quot;&gt;&lt;ol&gt;&lt;li&gt;Mahasiswa menunjukkan kartu identitas kepada pengawas&lt;/li&gt;&lt;li&gt;Pengawas memeriksa dan mengizinkan masuk&lt;/li&gt;&lt;li&gt;Mahasiswa mencari tempat duduk sesuai nomor&lt;/li&gt;&lt;li&gt;Pengawas membagikan lembar soal dan lembar jawaban&lt;/li&gt;&lt;/ol&gt;&lt;/div&gt;&lt;/div&gt;" style="shape=partialRectangle;html=1;whiteSpace=wrap;connectable=0;fillColor=none;top=0;left=0;bottom=0;right=0;align=left;spacingLeft=6;overflow=hidden;strokeColor=inherit;fontSize=16;" vertex="1" parent="udNe-3rVMuzrmk6FU7tA-63">
          <mxGeometry x="170" width="400" height="170" as="geometry">
            <mxRectangle width="400" height="170" as="alternateBounds" />
          </mxGeometry>
        </mxCell>
        <mxCell id="udNe-3rVMuzrmk6FU7tA-66" style="shape=tableRow;horizontal=0;startSize=0;swimlaneHead=0;swimlaneBody=0;top=0;left=0;bottom=0;right=0;collapsible=0;dropTarget=0;fillColor=none;points=[[0,0.5],[1,0.5]];portConstraint=eastwest;strokeColor=inherit;fontSize=16;" vertex="1" parent="udNe-3rVMuzrmk6FU7tA-41">
          <mxGeometry y="502" width="570" height="149" as="geometry" />
        </mxCell>
        <mxCell id="udNe-3rVMuzrmk6FU7tA-67" value="&lt;span&gt;&lt;b&gt;&lt;span style=&quot;color: rgb(0, 0, 0); font-family: Helvetica; font-size: 16px; font-style: normal; font-variant-ligatures: normal; font-variant-caps: normal; letter-spacing: normal; orphans: 2; text-align: left; text-indent: 0px; text-transform: none; widows: 2; word-spacing: 0px; -webkit-text-stroke-width: 0px; white-space: normal; text-decoration-thickness: initial; text-decoration-style: initial; text-decoration-color: initial; float: none; display: inline !important;&quot;&gt;Adegan (&lt;/span&gt;&lt;i style=&quot;forced-color-adjust: none; color: rgb(0, 0, 0); font-family: Helvetica; font-size: 16px; font-variant-ligatures: normal; font-variant-caps: normal; letter-spacing: normal; orphans: 2; text-align: left; text-indent: 0px; text-transform: none; widows: 2; word-spacing: 0px; -webkit-text-stroke-width: 0px; white-space: normal; text-decoration-thickness: initial; text-decoration-style: initial; text-decoration-color: initial;&quot;&gt;Scene&lt;/i&gt;&lt;span style=&quot;color: rgb(0, 0, 0); font-family: Helvetica; font-size: 16px; font-style: normal; font-variant-ligatures: normal; font-variant-caps: normal; letter-spacing: normal; orphans: 2; text-align: left; text-indent: 0px; text-transform: none; widows: 2; word-spacing: 0px; -webkit-text-stroke-width: 0px; white-space: normal; text-decoration-thickness: initial; text-decoration-style: initial; text-decoration-color: initial; float: none; display: inline !important;&quot;&gt;) 3&lt;/span&gt;&lt;/b&gt;&lt;/span&gt;" style="shape=partialRectangle;html=1;whiteSpace=wrap;connectable=0;fillColor=none;top=0;left=0;bottom=0;right=0;overflow=hidden;strokeColor=inherit;fontSize=16;align=left;verticalAlign=top;" vertex="1" parent="udNe-3rVMuzrmk6FU7tA-66">
          <mxGeometry width="170" height="149" as="geometry">
            <mxRectangle width="170" height="149" as="alternateBounds" />
          </mxGeometry>
        </mxCell>
        <mxCell id="udNe-3rVMuzrmk6FU7tA-68" value="&lt;b&gt;Pengerjaan Soal&lt;/b&gt;&lt;div&gt;&lt;p style=&quot;margin: 0px; font-variant-numeric: normal; font-variant-east-asian: normal; font-variant-alternates: normal; font-size-adjust: none; font-kerning: auto; font-optical-sizing: auto; font-feature-settings: normal; font-variation-settings: normal; font-variant-position: normal; font-variant-emoji: normal; font-stretch: normal; font-size: 13px; line-height: normal; font-family: &amp;quot;Helvetica Neue&amp;quot;;&quot; class=&quot;p1&quot;&gt;&lt;/p&gt;&lt;ol&gt;&lt;li&gt;Pengawas memberikan instruksi awal&lt;/li&gt;&lt;li&gt;Mahasiswa membaca soal dan mulai mengerjakan&lt;/li&gt;&lt;li&gt;Mahasiswa fokus dan tenang mengerjakan soal&lt;/li&gt;&lt;li&gt;Pengawas berkeliling mengawasi jalannya ujian&lt;/li&gt;&lt;/ol&gt;&lt;p&gt;&lt;/p&gt;&lt;/div&gt;" style="shape=partialRectangle;html=1;whiteSpace=wrap;connectable=0;fillColor=none;top=0;left=0;bottom=0;right=0;align=left;spacingLeft=6;overflow=hidden;strokeColor=inherit;fontSize=16;" vertex="1" parent="udNe-3rVMuzrmk6FU7tA-66">
          <mxGeometry x="170" width="400" height="149" as="geometry">
            <mxRectangle width="400" height="149" as="alternateBounds" />
          </mxGeometry>
        </mxCell>
        <mxCell id="udNe-3rVMuzrmk6FU7tA-69" style="shape=tableRow;horizontal=0;startSize=0;swimlaneHead=0;swimlaneBody=0;top=0;left=0;bottom=0;right=0;collapsible=0;dropTarget=0;fillColor=none;points=[[0,0.5],[1,0.5]];portConstraint=eastwest;strokeColor=inherit;fontSize=16;" vertex="1" parent="udNe-3rVMuzrmk6FU7tA-41">
          <mxGeometry y="651" width="570" height="130" as="geometry" />
        </mxCell>
        <mxCell id="udNe-3rVMuzrmk6FU7tA-70" value="&lt;span&gt;&lt;b&gt;&lt;span style=&quot;color: rgb(0, 0, 0); font-family: Helvetica; font-size: 16px; font-style: normal; font-variant-ligatures: normal; font-variant-caps: normal; letter-spacing: normal; orphans: 2; text-align: left; text-indent: 0px; text-transform: none; widows: 2; word-spacing: 0px; -webkit-text-stroke-width: 0px; white-space: normal; text-decoration-thickness: initial; text-decoration-style: initial; text-decoration-color: initial; float: none; display: inline !important;&quot;&gt;Adegan (&lt;/span&gt;&lt;i style=&quot;forced-color-adjust: none; color: rgb(0, 0, 0); font-family: Helvetica; font-size: 16px; font-variant-ligatures: normal; font-variant-caps: normal; letter-spacing: normal; orphans: 2; text-align: left; text-indent: 0px; text-transform: none; widows: 2; word-spacing: 0px; -webkit-text-stroke-width: 0px; white-space: normal; text-decoration-thickness: initial; text-decoration-style: initial; text-decoration-color: initial;&quot;&gt;Scene&lt;/i&gt;&lt;span style=&quot;color: rgb(0, 0, 0); font-family: Helvetica; font-size: 16px; font-style: normal; font-variant-ligatures: normal; font-variant-caps: normal; letter-spacing: normal; orphans: 2; text-align: left; text-indent: 0px; text-transform: none; widows: 2; word-spacing: 0px; -webkit-text-stroke-width: 0px; white-space: normal; text-decoration-thickness: initial; text-decoration-style: initial; text-decoration-color: initial; float: none; display: inline !important;&quot;&gt;) 4&lt;/span&gt;&lt;/b&gt;&lt;/span&gt;" style="shape=partialRectangle;html=1;whiteSpace=wrap;connectable=0;fillColor=none;top=0;left=0;bottom=0;right=0;overflow=hidden;strokeColor=inherit;fontSize=16;align=left;verticalAlign=top;" vertex="1" parent="udNe-3rVMuzrmk6FU7tA-69">
          <mxGeometry width="170" height="130" as="geometry">
            <mxRectangle width="170" height="130" as="alternateBounds" />
          </mxGeometry>
        </mxCell>
        <mxCell id="udNe-3rVMuzrmk6FU7tA-71" value="&lt;b&gt;Pengumpulan Jawaban dan Keluar Ruangan&lt;/b&gt;&lt;div&gt;&lt;p style=&quot;margin: 0px; font-variant-numeric: normal; font-variant-east-asian: normal; font-variant-alternates: normal; font-size-adjust: none; font-kerning: auto; font-optical-sizing: auto; font-feature-settings: normal; font-variation-settings: normal; font-variant-position: normal; font-variant-emoji: normal; font-stretch: normal; font-size: 13px; line-height: normal; font-family: &amp;quot;Helvetica Neue&amp;quot;;&quot; class=&quot;p1&quot;&gt;&lt;/p&gt;&lt;ol&gt;&lt;li&gt;Waktu habis, pengawas memberi instruksi berhenti&lt;/li&gt;&lt;li&gt;Mahasiswa mengumpulkan lembar jawaban&lt;/li&gt;&lt;li&gt;Mahasiswa keluar ruangan dengan tertib&lt;/li&gt;&lt;/ol&gt;&lt;p&gt;&lt;/p&gt;&lt;/div&gt;" style="shape=partialRectangle;html=1;whiteSpace=wrap;connectable=0;fillColor=none;top=0;left=0;bottom=0;right=0;align=left;spacingLeft=6;overflow=hidden;strokeColor=inherit;fontSize=16;" vertex="1" parent="udNe-3rVMuzrmk6FU7tA-69">
          <mxGeometry x="170" width="400" height="130" as="geometry">
            <mxRectangle width="400" height="130" as="alternateBounds" />
          </mxGeometry>
        </mxCell>
        <mxCell id="udNe-3rVMuzrmk6FU7tA-72" style="shape=tableRow;horizontal=0;startSize=0;swimlaneHead=0;swimlaneBody=0;top=0;left=0;bottom=0;right=0;collapsible=0;dropTarget=0;fillColor=none;points=[[0,0.5],[1,0.5]];portConstraint=eastwest;strokeColor=inherit;fontSize=16;" vertex="1" parent="udNe-3rVMuzrmk6FU7tA-41">
          <mxGeometry y="781" width="570" height="164" as="geometry" />
        </mxCell>
        <mxCell id="udNe-3rVMuzrmk6FU7tA-73" value="&lt;b&gt;Hasil&lt;/b&gt;" style="shape=partialRectangle;html=1;whiteSpace=wrap;connectable=0;fillColor=none;top=0;left=0;bottom=0;right=0;overflow=hidden;strokeColor=inherit;fontSize=16;align=left;verticalAlign=top;" vertex="1" parent="udNe-3rVMuzrmk6FU7tA-72">
          <mxGeometry width="170" height="164" as="geometry">
            <mxRectangle width="170" height="164" as="alternateBounds" />
          </mxGeometry>
        </mxCell>
        <mxCell id="udNe-3rVMuzrmk6FU7tA-74" value="&lt;b&gt;Mahasiswa merasa:&lt;br&gt;&lt;/b&gt;&lt;p style=&quot;margin: 0px; font-variant-numeric: normal; font-variant-east-asian: normal; font-variant-alternates: normal; font-size-adjust: none; font-kerning: auto; font-optical-sizing: auto; font-feature-settings: normal; font-variation-settings: normal; font-variant-position: normal; font-variant-emoji: normal; font-stretch: normal; font-size: 13px; line-height: normal; font-family: &amp;quot;Helvetica Neue&amp;quot;;&quot; class=&quot;p1&quot;&gt;&lt;/p&gt;&lt;ol&gt;&lt;li&gt;Senang dan lega karena berhasil mengerjakan soal&lt;/li&gt;&lt;li&gt;Kecewa karena merasa tidak bisa menjawab dengan baik&lt;/li&gt;&lt;li&gt;Pusing karena soal sulit&lt;/li&gt;&lt;li&gt;Bersyukur karena soal sesuai yang dipelajari&lt;/li&gt;&lt;/ol&gt;&lt;p&gt;&lt;/p&gt;" style="shape=partialRectangle;html=1;whiteSpace=wrap;connectable=0;fillColor=none;top=0;left=0;bottom=0;right=0;align=left;spacingLeft=6;overflow=hidden;strokeColor=inherit;fontSize=16;" vertex="1" parent="udNe-3rVMuzrmk6FU7tA-72">
          <mxGeometry x="170" width="400" height="164" as="geometry">
            <mxRectangle width="400" height="164" as="alternateBounds" />
          </mxGeometry>
        </mxCell>
      </root>
    </mxGraphModel>
  </diagram>
</mxfile>
